<?xml version="1.0" encoding="utf-8"?>
<!-- Generator: Adobe Illustrator 21.1.0, SVG Export Plug-In . SVG Version: 6.00 Build 0)  -->
<!DOCTYPE svg PUBLIC "-//W3C//DTD SVG 1.1//EN" "http://www.w3.org/Graphics/SVG/1.1/DTD/svg11.dtd">
<svg version="1.1" id="Layer_1" xmlns="http://www.w3.org/2000/svg" xmlns:xlink="http://www.w3.org/1999/xlink" x="0px" y="0px"
	 viewBox="0 0 25 25" style="enable-background:new 0 0 25 25;" xml:space="preserve">
<style type="text/css">
	.st0{fill:#FFFFFF;}
</style>
<g>
	<path class="st0" d="M23.9,20.5c0,0-6.3-5.5-6.5-5.6c1-1.5,1.6-3.4,1.6-5.4c0-5.3-4.3-9.5-9.5-9.5C4.3,0,0,4.3,0,9.5
		c0,5.3,4.3,9.5,9.5,9.5c2,0,3.8-0.6,5.4-1.6c0.1,0.2,5.6,6.5,5.6,6.5c1.1,1.2,2.8,1.4,3.8,0.4C25.4,23.3,25.2,21.6,23.9,20.5z
		 M9.5,16C6,16,3.1,13.1,3.1,9.5C3.1,6,6,3.1,9.5,3.1C13.1,3.1,16,6,16,9.5C16,13.1,13.1,16,9.5,16z"/>
</g>
</svg>
