<?xml version="1.0" encoding="utf-8"?>
<!-- Generator: Adobe Illustrator 21.1.0, SVG Export Plug-In . SVG Version: 6.00 Build 0)  -->
<!DOCTYPE svg PUBLIC "-//W3C//DTD SVG 1.1//EN" "http://www.w3.org/Graphics/SVG/1.1/DTD/svg11.dtd">
<svg version="1.1" id="Layer_1" xmlns="http://www.w3.org/2000/svg" xmlns:xlink="http://www.w3.org/1999/xlink" x="0px" y="0px"
	 viewBox="0 0 25 25" style="enable-background:new 0 0 25 25;" xml:space="preserve">
<style type="text/css">
	.st0{fill:#ADADAD;}
</style>
<g>
	<path class="st0" d="M13.6,1.9c0,0-4.9,0-6.5,0c-2.9,0-5.7,2.2-5.7,4.8c0,2.6,2,4.8,5,4.8c0.2,0,0.4,0,0.6,0
		c-0.2,0.4-0.3,0.8-0.3,1.2c0,0.7,0.4,1.3,0.9,1.8c-0.4,0-0.7,0-1.1,0c-3.6,0-6.4,2.3-6.4,4.7c0,2.4,3.1,3.8,6.7,3.8
		c4.1,0,6.4-2.4,6.4-4.7c0-1.9-0.6-3-2.3-4.3c-0.6-0.4-1.7-1.4-1.7-2c0-0.7,0.2-1,1.3-1.9c1.1-0.8,1.8-2,1.8-3.4
		c0-1.6-0.7-3.2-2.1-3.8h2.1L13.6,1.9L13.6,1.9z M11.4,17.9c0.1,0.2,0.1,0.4,0.1,0.7c0,1.9-1.2,3.4-4.8,3.4c-2.5,0-4.3-1.6-4.3-3.5
		c0-1.9,2.2-3.4,4.8-3.4c0.6,0,1.1,0.1,1.6,0.3C10.1,16.3,11.1,16.9,11.4,17.9L11.4,17.9L11.4,17.9z M7.3,10.8
		c-1.7-0.1-3.3-1.9-3.6-4.1C3.5,4.5,4.6,2.8,6.3,2.9c1.7,0.1,3.3,1.8,3.6,4C10.2,9.1,9,10.9,7.3,10.8L7.3,10.8z M20.3,6.6V1.9h-1.6
		v4.7h-4.7v1.6h4.7v4.7h1.6V8.2H25V6.6C25,6.6,20.3,6.6,20.3,6.6z"/>
</g>
</svg>
