<?xml version="1.0" encoding="utf-8"?>
<!-- Generator: Adobe Illustrator 21.1.0, SVG Export Plug-In . SVG Version: 6.00 Build 0)  -->
<!DOCTYPE svg PUBLIC "-//W3C//DTD SVG 1.1//EN" "http://www.w3.org/Graphics/SVG/1.1/DTD/svg11.dtd">
<svg version="1.1" id="Layer_1" xmlns="http://www.w3.org/2000/svg" xmlns:xlink="http://www.w3.org/1999/xlink" x="0px" y="0px"
	 viewBox="0 0 25 25" style="enable-background:new 0 0 25 25;" xml:space="preserve">
<style type="text/css">
	.st0{fill:#ADADAD;}
</style>
<g>
	<g>
		<path class="st0" d="M20.8,0H4.2C1.9,0,0,1.9,0,4.2v16.6C0,23.1,1.9,25,4.2,25h16.6c2.3,0,4.2-1.9,4.2-4.2V4.2
			C25,1.9,23.1,0,20.8,0z M9.4,20.3H6.2V9.4h3.1V20.3z M7.8,7.8C7,7.8,6.2,7.1,6.2,6.2c0-0.9,0.7-1.6,1.6-1.6c0.9,0,1.6,0.7,1.6,1.6
			C9.4,7.1,8.7,7.8,7.8,7.8z M20.3,20.3h-3.1v-6.2c0-0.9-0.7-1.6-1.6-1.6s-1.6,0.7-1.6,1.6v6.2h-3.1V9.4h3.1v1.9
			c0.6-0.9,1.6-1.9,2.7-1.9c1.9,0,3.5,1.7,3.5,3.9V20.3z"/>
	</g>
</g>
</svg>
