<?xml version="1.0" encoding="utf-8"?>
<!-- Generator: Adobe Illustrator 22.1.0, SVG Export Plug-In . SVG Version: 6.00 Build 0)  -->
<svg version="1.1" id="Layer_1" xmlns="http://www.w3.org/2000/svg" xmlns:xlink="http://www.w3.org/1999/xlink" x="0px" y="0px"
	 viewBox="0 0 428.9 36.4" style="enable-background:new 0 0 428.9 36.4;" xml:space="preserve">
<style type="text/css">
	.st0{fill:#000066;}
	.st1{fill:#FFFFFF;}
	.st2{fill:#990000;}
</style>
<g>
	<g>
		<path class="st0" d="M68.3,4.1v0.5C65,5,64.8,7,64.6,11.8l-0.2,8c-0.1,4.7-2.1,9.5-10.2,9.5C42.9,29.3,44,21.1,44,18.2V10
			c-0.1-3.8-0.1-4.9-4.5-5.4V4.1h12.6v0.5c-4.8,0.7-4.8,1.5-4.8,5.5v7.5c0,0.7-1.2,10.1,8.8,10.1c7.9,0,7.1-7.5,7.1-12v-3.8
			c0-4.6-0.4-6.8-5.5-7.2V4.2L68.3,4.1L68.3,4.1z"/>
	</g>
	<g>
		<path class="st0" d="M84.9,24.6l-0.1-10c0-2.6-0.7-3.4-3.8-3.9v-0.4h7.5v0.4c-1.9,0.2-2.2,1.3-2.5,3.1c-0.4,3-0.2,9.6-0.1,15.6
			l-0.4,0.1c-4.4-5.2-9.3-10-13.9-15v5c0,6.8-0.2,8.2,3.8,9v0.4h-8.2v-0.4c3.7-0.4,3.6-2.9,3.6-9.1v-4.1c0-2.7-0.4-3.8-3.9-4.6v-0.4
			h4.5L84.9,24.6z"/>
	</g>
	<g>
		<path class="st0" d="M95,24.4c0.1,2.8,0.1,3.6,3.4,4.1v0.4h-9.2v-0.4c3.3-0.4,3.3-1.3,3.4-4.1v-9.6c-0.1-2.8-0.1-3.6-3.4-4.1v-0.4
			h9.2v0.4c-3.3,0.4-3.3,1.3-3.4,4.1V24.4z"/>
		<path class="st0" d="M119.9,10.3v0.4c-2.6,0.2-3.4,2.4-5.1,6.4l-5.2,12.5h-0.4L103,14.8c-0.8-2-1.5-3.8-3.9-4v-0.4h8.7v0.4
			c-3.9,0.4-2.6,2.6-1.9,4.3l4.4,10.6l3.2-7.8c2.4-5.6,2.8-6.5-1.4-7.1v-0.4L119.9,10.3L119.9,10.3z"/>
		<path class="st0" d="M120.5,28.5c3.3-0.4,3.3-1.3,3.4-4.1v-9.6c-0.1-2.8-0.1-3.6-3.4-4.1v-0.4h14.7l-0.3,4.2h-0.4
			c-0.2-3.5-2.7-3.6-5.5-3.6h-2.7v7.8h2.8c2.1,0,3.6-0.2,3.9-2.5h0.4v6.1H133c-0.4-2.4-1.9-2.4-3.9-2.4h-2.8v4.5
			c0,1.6-0.4,3.9,4.1,3.9c3.5,0,5.1-1.3,5.8-4.8h0.4c0,2.1-0.4,3.8-0.9,5.4h-15.2L120.5,28.5L120.5,28.5z"/>
	</g>
	<g>
		<path class="st0" d="M140.3,15.9c0-4.2-0.1-4.8-3.2-5.1v-0.4l6.7-0.2c6.9-0.2,7.4,3.2,7.4,4.5c0,2.3-1.4,3.6-3.4,4.5l0.1,0.2
			c2.1,3.7,4.7,8.4,9.3,9.3l-0.1,0.4c-2.9-0.1-5-0.1-6.6-1.7c-1.8-1.9-3.2-4.3-3.8-5.5c-1.1-2.3-2.1-1.6-4-1.9v4.4
			c0,3,0.1,3.6,3.8,4.1v0.4h-9.6v-0.4c3.3-0.4,3.3-1.3,3.4-4.1L140.3,15.9L140.3,15.9z M142.7,19.6c2.6,0,5.7-1.2,5.7-4.3
			c0-3.2-2.8-4.5-5.7-4.5V19.6z"/>
		<path class="st0" d="M166.6,15.1h-0.4c-0.4-2.2-1.2-4.4-3.9-4.4c-1.8,0-3.2,1.2-3.2,3c0,4.7,8.6,4.6,8.6,10.1
			c0,3.5-3.5,5.4-6.7,5.4c-1.7,0-3.4-0.5-4.8-1.4l-0.8-4.7h0.5c0.7,2.6,2.5,5.2,5.5,5.2c2,0,3.6-1.2,3.6-3.3c0-4.9-8.4-4.4-8.4-9.9
			c0-3.2,3.2-5.2,6.1-5.2c1.4,0,2.8,0.4,4,1.1L166.6,15.1z"/>
	</g>
	<g>
		<path class="st0" d="M174.5,24.4c0.1,2.8,0.1,3.6,3.4,4.1v0.4h-9.2v-0.4c3.3-0.4,3.3-1.3,3.4-4.1v-9.6c-0.1-2.8-0.1-3.6-3.4-4.1
			v-0.4h9.2v0.4c-3.3,0.4-3.3,1.3-3.4,4.1V24.4z"/>
		<path class="st0" d="M195.3,9.5h0.2l0.4,5.1l-0.4,0.1c-1-3.4-2.5-3.5-5.6-3.5h-1.6v12.7c0,3.4,0.2,4.3,3.8,4.7V29H182v-0.4
			c3.7-0.4,3.8-1.3,3.8-4.7V11.1h-1.6c-3.1,0-4.7,0.1-5.6,3.5l-0.4-0.1l0.4-5.1h0.2l0.3,0.2c0.7,0.6,0.8,0.6,1.7,0.6h12.5
			c0.9,0,1,0,1.7-0.6L195.3,9.5z"/>
	</g>
	<g>
		<path class="st0" d="M214,10.3v0.4c-2.4,0.2-3.6,1.5-4.7,3.5l-3.2,6.4v3.1c0.1,3.2,0.1,4.3,3.6,4.8v0.4h-9.6v-0.4
			c3.5-0.5,3.6-1.7,3.6-4.8v-2.2l-2.8-6.2c-1-2.3-1.8-4.2-4.5-4.6v-0.4h7.6v0.4c-2.2,0.3-1.9,1.2-1.1,3.1l2.7,5.9l2.4-4.5
			c1.7-3.2,1.5-4.2-0.9-4.5v-0.4C207.1,10.3,214,10.3,214,10.3z"/>
		<path class="st0" d="M242.5,19.6c0,5.9-4.3,9.6-10,9.6c-5.8,0-10-3.8-10-9.7c0-5.8,4.3-9.6,10-9.6C239.5,10,242.5,14.7,242.5,19.6
			z M225.6,18.9c0,4.2,2.2,9.7,7.2,9.7c4.5,0,6.5-4.6,6.5-8.5c-0.1-4.8-2.9-9.4-7.1-9.4C227.5,10.6,225.6,15.2,225.6,18.9z"/>
	</g>
	<g>
		<path class="st0" d="M255.5,16.3V23h-0.4c-0.2-2.8-1.6-2.7-3.9-2.7h-3v4.1c0,2.9,0.1,3.5,3.9,4.1v0.4h-9.8v-0.4
			c3.3-0.4,3.3-1.3,3.4-4.1v-9.6c-0.1-2.8-0.1-3.6-3.4-4.1v-0.4h14.5l-0.4,4.3H256c-0.2-3.5-2.5-3.7-5.3-3.7h-2.5v8.2h3
			c2.3,0,3.7-0.2,3.9-2.8C255.1,16.3,255.5,16.3,255.5,16.3z"/>
	</g>
	<g>
		<path class="st0" d="M271.2,11.6c0-5.6-0.2-6.4-4.3-6.8V4.3l8.9-0.3c9.2-0.3,9.9,4.2,9.9,6c0,3.1-1.9,4.8-4.5,6l0.2,0.3
			c2.8,4.9,6.3,11.2,12.3,12.5l-0.1,0.5c-3.9-0.2-6.7-0.1-8.8-2.3c-2.4-2.5-4.3-5.7-5.1-7.3c-1.5-3-2.8-2.2-5.3-2.6V23
			c0,4,0.1,4.7,5.1,5.4v0.5h-12.8v-0.5c4.4-0.6,4.4-1.7,4.5-5.4V11.6L271.2,11.6z M274.4,16.4c3.5,0,7.6-1.6,7.6-5.7
			c0-4.3-3.8-6-7.6-6V16.4z"/>
	</g>
	<g>
		<path class="st0" d="M297.8,24.4c0.1,2.8,0.1,3.6,3.4,4.1v0.4H292v-0.4c3.3-0.4,3.3-1.3,3.4-4.1v-9.6c-0.1-2.8-0.1-3.6-3.4-4.1
			v-0.4h9.2v0.4c-3.3,0.4-3.3,1.3-3.4,4.1V24.4z"/>
		<path class="st0" d="M318,15.9h-0.4c-0.5-3.1-2.3-5.3-5.6-5.3c-5,0-7.8,4.1-7.8,8.8c0,5.4,4.1,9.1,8.1,9.1c3.6,0,5-2.6,6.2-5.6
			l0.4,0.2c-0.3,1.7-0.8,3.3-1.5,4.9c-1.8,0.8-3.6,1.2-5.6,1.2c-5.7,0-10.8-3.3-10.8-9.5c0-4.9,3.8-9.8,11-9.8c2.1,0,4.2,0.4,6,1.5
			L318,15.9L318,15.9z"/>
	</g>
	<g>
		<path class="st0" d="M324.8,24.4c0,3,0.1,3.6,3.6,4.1v0.4h-9.5v-0.4c3.3-0.4,3.3-1.3,3.4-4.1v-9.6c-0.1-2.8-0.1-3.6-3.4-4.1v-0.4
			h9.5v0.4c-3.6,0.5-3.6,1.1-3.6,4.1v4h11v-4c0-3-0.1-3.6-3.6-4.1v-0.4h9.4v0.4c-3.3,0.4-3.3,1.3-3.4,4.1v9.6
			c0.1,2.8,0.1,3.6,3.4,4.1v0.4h-9.4v-0.4c3.6-0.5,3.6-1.1,3.6-4.1v-4.5h-11V24.4z"/>
		<path class="st0" d="M355.3,24.9l5-10.9c0.7-1.5,1.1-2.9,0.5-3.3l0.1-0.4h6v0.4c-1.8,0.4-2.8,1-2.7,2.9l0.6,10
			c0.3,3.8,0.3,4.4,3.2,4.9v0.4h-9v-0.4c2.1-0.3,3.5-0.6,3.3-3l-0.7-12h-0.1l-7,15.4h-0.3l-6.5-14.7h-0.1c-0.4,4.2-0.7,7.2-0.8,11.5
			c-0.1,1.1,0,2.3,3.3,2.8v0.4h-7.6v-0.4c2.4-0.4,2.7-1.6,3.1-3.8l1-7.7l0.4-3.7c0.2-1.8-1.4-2.4-3-2.6v-0.4h5.9v0.3
			c-0.6,0.6,0.1,2.3,0.3,2.7L355.3,24.9z"/>
	</g>
	<g>
		<path class="st0" d="M387.6,19.6c0,5.9-4.3,9.6-10,9.6c-5.8,0-10-3.8-10-9.7c0-5.8,4.3-9.6,10-9.6C384.5,10,387.6,14.7,387.6,19.6
			z M370.7,18.9c0,4.2,2.2,9.7,7.2,9.7c4.5,0,6.5-4.6,6.5-8.5c-0.1-4.8-2.9-9.4-7.1-9.4C372.6,10.6,370.7,15.2,370.7,18.9z"/>
		<path class="st0" d="M404.9,24.6l-0.1-10c0-2.6-0.7-3.4-3.8-3.9v-0.4h7.5v0.4c-1.9,0.2-2.2,1.3-2.5,3.1c-0.4,3-0.2,9.6-0.1,15.6
			l-0.4,0.1c-4.4-5.2-9.3-10-13.9-15v5c0,6.8-0.2,8.2,3.8,9v0.4h-8.2v-0.4c3.7-0.4,3.6-2.9,3.6-9.1v-4.1c0-2.7-0.4-3.8-3.9-4.6v-0.4
			h4.5L404.9,24.6z"/>
	</g>
	<g>
		<path class="st0" d="M409,10.5l6.6-0.2c12.1-0.4,13.3,6.6,13.3,9.4c0,3.9-2.5,9.4-11.9,9.3l-8.2-0.1v-0.4c3.3-0.4,3.3-1.3,3.4-4.1
			v-9.5c-0.1-2.8-0.1-3.6-3.2-4.1V10.5L409,10.5z M414.7,24.7c0,1.8,0.3,3.6,3.7,3.6c3.1,0,7.4-2,7.4-8.2c0-6.6-5.2-9.3-11.1-9.3
			V24.7z"/>
	</g>
</g>
<g>
	<path class="st1" d="M30.4,0H-0.1v11.1L0,16.7c0,1.6,0.2,3.1,0.5,4.5c0.3,1.3,0.8,2.7,1.3,3.9c1,2.2,2.4,4.1,4.3,5.9
		c0.8,0.7,1.6,1.4,2.5,2.1c0.8,0.6,1.6,1.1,2.4,1.5c1.9,1,3.3,1.5,3.8,1.7l0.4,0.1l0.4-0.1c0.5-0.2,1.9-0.6,3.8-1.7
		c0.8-0.5,1.6-1,2.4-1.5c0.9-0.6,1.7-1.3,2.5-2.1c1.8-1.7,3.2-3.7,4.3-5.9c0.6-1.2,1-2.5,1.3-3.9s0.5-3,0.5-4.5l0.1-5.6V0H30.4z"/>
	<path class="st0" d="M0.3,11.4l0.1,5.3c0,1.5,0.2,3,0.5,4.4c0.3,1.3,0.7,2.6,1.3,3.8c1,2.1,2.4,4.1,4.2,5.8c0.7,0.7,1.6,1.4,2.4,2
		c0.8,0.5,1.6,1.1,2.4,1.5c1.8,1,3.2,1.5,3.7,1.6l0.3,0.1l0.3-0.1c0.5-0.1,1.9-0.6,3.7-1.6c0.8-0.5,1.6-1,2.4-1.5
		c0.9-0.6,1.7-1.3,2.4-2c1.8-1.7,3.2-3.7,4.2-5.8c0.6-1.2,1-2.5,1.3-3.8c0.3-1.4,0.5-2.9,0.5-4.4l0.1-5.3
		C30.1,11.4,0.3,11.4,0.3,11.4z M29.4,16.7c0,1.5-0.2,2.9-0.5,4.3c-0.3,1.3-0.7,2.5-1.3,3.7c-1,2.1-2.3,3.9-4.1,5.6
		c-0.7,0.7-1.5,1.4-2.4,2c-0.7,0.5-1.5,1-2.3,1.5c-1.8,1-3.1,1.4-3.6,1.6h-0.1H15c-0.5-0.1-1.8-0.6-3.6-1.6
		c-0.8-0.4-1.6-0.9-2.3-1.5c-0.8-0.6-1.6-1.3-2.4-2c-1.7-1.7-3.1-3.6-4.1-5.6c-0.6-1.2-1-2.4-1.3-3.7c-0.3-1.4-0.5-2.8-0.5-4.3v-4.8
		h28.7L29.4,16.7z"/>
	<path class="st0" d="M1.8,20.9c0.3,1.3,0.7,2.5,1.2,3.6c0.9,2,2.3,3.9,4,5.5c0.7,0.7,1.5,1.3,2.3,1.9c0.7,0.5,1.5,1,2.3,1.4
		c1.8,1,3.1,1.4,3.5,1.5h0.1h0.1c0.5-0.1,1.8-0.6,3.5-1.5c0.8-0.4,1.5-0.9,2.3-1.4c0.8-0.6,1.6-1.2,2.3-1.9c1.7-1.6,3-3.5,4-5.5
		c0.5-1.1,1-2.4,1.2-3.6c0.3-1.4,0.5-2.8,0.5-4.2v-4.5H1.3v4.5C1.3,18.1,1.5,19.6,1.8,20.9z M28.8,12.5v4.2c0,12-10.4,17.1-13.6,18
		c-3.2-0.9-13.6-6-13.6-18v-4.2H28.8z"/>
	<rect x="0.3" y="0.4" class="st0" width="29.7" height="2.2"/>
	<g>
		<rect x="17.8" y="23.6" class="st2" width="5.3" height="5.3"/>
		<rect x="17.8" y="12.9" class="st2" width="5.3" height="5.3"/>
		<rect x="7.2" y="12.9" class="st2" width="5.3" height="5.3"/>
		<rect x="7.2" y="23.6" class="st2" width="5.3" height="5.3"/>
		<rect x="12.5" y="18.2" class="st2" width="5.3" height="5.3"/>
		<path class="st2" d="M12.5,28.9v4.2c1.3,0.6,2.2,1,2.7,1.1c0.5-0.1,1.4-0.5,2.7-1.1v-4.2H12.5z"/>
		<path class="st2" d="M28.2,18.2h-5.1v5.3h3.8c0.4-0.9,0.7-1.9,0.9-2.8C28,19.9,28.2,19.1,28.2,18.2z"/>
		<path class="st2" d="M7.2,18.2H2.1c0.1,0.9,0.2,1.7,0.4,2.5c0.2,1,0.5,1.9,0.9,2.8h3.8C7.2,23.5,7.2,18.2,7.2,18.2z"/>
	</g>
	<polygon class="st0" points="0.3,4.1 0.3,10.6 30,10.6 30,4.1 	"/>
</g>
</svg>
