<?xml version="1.0" encoding="utf-8"?>
<!-- Generator: Adobe Illustrator 21.1.0, SVG Export Plug-In . SVG Version: 6.00 Build 0)  -->
<!DOCTYPE svg PUBLIC "-//W3C//DTD SVG 1.1//EN" "http://www.w3.org/Graphics/SVG/1.1/DTD/svg11.dtd">
<svg version="1.1" id="Layer_1" xmlns="http://www.w3.org/2000/svg" xmlns:xlink="http://www.w3.org/1999/xlink" x="0px" y="0px"
	 viewBox="0 0 30.9 25" style="enable-background:new 0 0 30.9 25;" xml:space="preserve">
<style type="text/css">
	.st0{fill:#ADADAD;}
</style>
<path class="st0" d="M30.9,3c-1.1,0.5-2.3,0.9-3.6,1c1.4-0.7,2.3-2,2.8-3.4c-1.2,0.7-2.6,1.2-4.1,1.5c-1.1-1.2-2.8-2-4.6-2
	c-3.4,0-6.3,2.8-6.3,6.3c0,0.5,0,1,0.1,1.5c-5.3-0.2-10-2.8-13.2-6.7c-0.5,1-0.9,2.1-0.9,3.2c0,2.2,1.2,4.2,2.8,5.3
	c-1,0-2-0.4-2.8-0.9c0,0,0,0,0,0.1c0,3.1,2.2,5.7,5,6.2c-0.5,0.1-1.1,0.2-1.7,0.2c-0.4,0-0.9,0-1.2-0.1c0.9,2.5,3.1,4.3,5.9,4.4
	c-2.2,1.7-4.9,2.7-7.9,2.7c-0.5,0-1,0-1.5-0.1C2.8,24,6.2,25,9.7,25c11.6,0,18-9.6,18-18c0-0.2,0-0.5,0-0.9C28.9,5.3,30,4.2,30.9,3
	L30.9,3z"/>
</svg>
