<?xml version="1.0" encoding="utf-8"?>
<!-- Generator: Adobe Illustrator 22.1.0, SVG Export Plug-In . SVG Version: 6.00 Build 0)  -->
<!DOCTYPE svg PUBLIC "-//W3C//DTD SVG 1.1//EN" "http://www.w3.org/Graphics/SVG/1.1/DTD/svg11.dtd">
<svg version="1.1" id="Layer_1" xmlns="http://www.w3.org/2000/svg" xmlns:xlink="http://www.w3.org/1999/xlink" x="0px" y="0px"
	 viewBox="0 0 288 288" style="enable-background:new 0 0 288 288;" xml:space="preserve">
<style type="text/css">
	.st0{fill:url(#SVGID_1_);}
</style>
<g>
	<g>
		<g>
			<g>
				<g>
					
						<radialGradient id="SVGID_1_" cx="143.55" cy="145.7" r="142.325" gradientTransform="matrix(1 0 0 -1 0 290)" gradientUnits="userSpaceOnUse">
						<stop  offset="0" style="stop-color:#BAB6B5"/>
						<stop  offset="0.85" style="stop-color:#BAB6B5;stop-opacity:0"/>
					</radialGradient>
					<path class="st0" d="M143.5,286.6c-0.3-0.1-26.5-7-46.9-29C66.5,258.8,43.2,245.1,43,245l-0.2-0.2
						c-0.1-0.2-13.8-23.5-12.6-53.5c-22.1-20.4-28.9-46.6-29-46.8v-0.1c0.1-0.3,7-26.5,29-46.9C29,67.4,42.7,44.1,42.8,43.9l0.1-0.2
						l0,0c0.2-0.1,23.7-13.8,53.6-12.6C117,8.8,143.2,2,143.5,2h0.1c0.3,0.1,26.5,7,46.9,29c30.1-1.2,53.4,12.5,53.6,12.6l0.2,0.2
						c0.1,0.2,13.8,23.6,12.6,53.6c22,20.4,28.9,46.6,29,46.8v0.1c-0.1,0.3-7,26.5-29,46.9c1.2,30.1-12.5,53.4-12.6,53.6l-0.2,0.2
						c-0.2,0.1-21.8,12.7-50,12.7c-1.2,0-2.4,0-3.6-0.1c-20.4,22.1-46.6,28.9-46.8,29H143.5z M96.9,257.4
						c19.7,21.3,44.8,28.4,46.6,28.9v-32.5c-1.2-0.3-20.6-5.7-35.9-22.2L96.9,257.4z M143.8,253.7v32.5c2.2-0.6,27-7.7,46.5-28.8
						l-10.7-25.8C164.4,247.8,145.4,253.3,143.8,253.7z M190.5,257.2c28.5,1.1,51.1-11.2,53.2-12.5l-23-23c-1.7,1-19,10.4-40.9,9.7
						L190.5,257.2z M43.3,244.8c2,1.1,24.5,13.6,53.2,12.5l10.7-25.8c-22,0.8-39.4-8.8-40.9-9.7L43.3,244.8z M107.7,231.3
						c15.1,16.3,34.3,21.7,35.8,22.2v-26.7c-0.8-0.2-10.7-3-20.5-10.6c-2.1-1.7-4.4-3.7-6.5-6L107.7,231.3z M143.8,226.7v26.7
						c1.9-0.5,20.7-6,35.7-22.1l-8.8-21.2c-2.2,2.3-4.4,4.3-6.5,6C154.5,223.6,144.9,226.4,143.8,226.7z M221,221.6l23,23
						c0.4-0.6,13.7-23.7,12.6-53.3l-25.8-10.7C231.5,203.5,221.1,221.4,221,221.6L221,221.6z M30.6,191.3
						c-1.1,29.2,11.9,52.1,12.6,53.3l23-23l0,0c-0.1-0.2-10.5-18-9.7-40.9L30.6,191.3z M179.7,231.1c21.7,0.8,39-8.5,40.9-9.6
						l-18.9-18.9c-0.4,0.2-9.4,5.4-22,7c-2.6,0.3-5.6,0.5-8.7,0.4L179.7,231.1z M66.6,221.6c1.9,1.1,19.1,10.4,40.9,9.6l8.8-21.2
						c-3.1,0.1-6-0.1-8.6-0.4c-12.8-1.5-21.9-6.9-22-7l0,0L66.6,221.6z M116.7,209.9c2.1,2.3,4.3,4.3,6.4,5.9
						c9.6,7.5,19.2,10.3,20.3,10.6v-25.1C134.1,207.4,124.8,209.6,116.7,209.9z M143.8,201.4v25c1.3-0.4,10.8-3.2,20.2-10.5
						c2.1-1.6,4.2-3.6,6.3-5.8C162.3,209.7,153,207.5,143.8,201.4z M201.9,202.5l18.9,18.9c0.6-1,10.5-18.6,9.7-40.9l-21.3-8.8l0,0
						c0.1,3.2,0,6.2-0.4,8.9C207.3,192.6,202.5,201.4,201.9,202.5z M56.6,180.5c-0.8,22.3,9.1,39.8,9.7,40.9l19-19
						c-0.6-1.1-5.4-9.8-6.9-21.9c-0.3-2.7-0.5-5.6-0.4-8.8l0,0L56.6,180.5z M170.9,209.8c3.1,0.1,6-0.1,8.7-0.4
						c12.3-1.5,21.1-6.5,21.8-6.9l-17.8-17.8C181.4,195.6,176.4,203.8,170.9,209.8z M143.8,201.1c9.3,6.1,18.7,8.3,26.7,8.7
						l-9.8-23.7c-3.1,3.1-5.8,5.8-7.7,7.6C150,196.6,146.9,199,143.8,201.1z M85.7,202.4c0.4,0.2,9.3,5.4,21.9,6.9
						c2.6,0.3,5.4,0.5,8.5,0.4c-5.4-5.9-10.4-14.1-12.6-25L85.7,202.4z M126.4,186.1l-9.8,23.6c8-0.3,17.3-2.5,26.6-8.6
						c-3-2-6.1-4.5-9.1-7.4C130.5,190,128,187.6,126.4,186.1z M161,185.9l9.8,23.6c5.4-5.9,10.4-14,12.6-24.9
						c-3.5,0.7-7.4,1.1-11.5,1.2C166.6,185.8,163.2,185.9,161,185.9z M103.7,184.6c2.3,10.9,7.3,19,12.6,24.9l9.8-23.7l0,0
						c-4.4,0-8.3,0-10.8-0.1C111.1,185.7,107.3,185.3,103.7,184.6z M183.9,184.5l17.8,17.8c0.7-1.3,5.4-9.9,6.8-21.7
						c0.3-2.6,0.5-5.5,0.4-8.6C202.9,177.3,194.8,182.2,183.9,184.5z M78.3,171.9c-0.1,3.1,0.1,5.9,0.4,8.5
						c1.4,11.8,6.1,20.4,6.8,21.7l17.7-17.7C92.4,182.2,84.3,177.3,78.3,171.9z M126.6,185.8c1.6,1.5,4.1,4,7.8,7.7
						c3,2.9,6,5.3,9,7.4v-15c-2,0-4,0-6.1,0C133.7,185.8,130,185.8,126.6,185.8z M143.8,185.9v14.9c3-2,6.1-4.4,9-7.4
						c1.8-1.8,4.5-4.5,7.5-7.5c-1.4,0-2.2,0-2.7,0h-0.9C156.1,185.9,150.6,185.9,143.8,185.9z M1.6,144.5
						c0.4,1.3,7.3,26.7,28.9,46.6l25.9-10.7c-16.3-15.1-21.8-34.2-22.2-35.9H1.6z M230.8,180.3l25.8,10.7l0,0
						c21-19.4,28.2-44.1,28.9-46.5H253C252.5,146.4,247,165.3,230.8,180.3z M143.8,185.6c6.8,0,12.3,0,13,0.1h0.9c0.5,0,1.4,0,2.8,0
						c0,0,0,0,0.1,0l-16.7-40.4v40.3H143.8z M172.9,173.9c-2,2-4.2,4.1-6.3,6.3c-1.8,1.8-3.7,3.7-5.5,5.4c2.2,0,5.7-0.1,10.8-0.1
						c4.1,0,7.9-0.5,11.4-1.1L172.9,173.9z M126.6,185.5c3.4,0,7.1,0,10.7,0c2.1,0,4.1,0,6.1,0v-40.7L126.6,185.5z M126.3,185.5
						L126.3,185.5l16.8-40.4l-28.6,28.6c4.9,4.9,8.7,8.7,9.1,9.2l0.3,0.2l0.4,0.4C124.6,183.9,125.2,184.5,126.3,185.5L126.3,185.5z
						 M103.8,184.3c3.5,0.7,7.3,1.1,11.5,1.2c2.5,0,6.2,0,10.5,0.1c-0.9-0.9-1.5-1.4-1.8-1.8l-0.4-0.4l-0.3-0.2
						c-0.4-0.5-4.2-4.3-9.1-9.2L103.8,184.3z M144,145l16.8,40.4c1.8-1.8,3.7-3.7,5.6-5.5c2.1-2.1,4.3-4.3,6.3-6.3L144,145z
						 M185.1,161.7c0,1.1,0,2.5,0,4.3s0,4-0.1,6.6c0,4.2-0.5,8-1.2,11.6c11-2.3,19.1-7.3,25.1-12.7L185.1,161.7L185.1,161.7z
						 M78.3,171.5c5.9,5.4,14.1,10.4,25,12.7c-0.7-3.6-1.1-7.4-1.2-11.6c-0.1-5.2-0.1-8.7-0.2-10.9L78.3,171.5L78.3,171.5z
						 M102.3,162c0,2.2,0.1,5.6,0.1,10.6c0,4.1,0.5,7.9,1.2,11.5l10.4-10.4c-0.2-0.2-0.4-0.4-0.6-0.6
						C109.9,169.6,105.9,165.6,102.3,162z M173.1,173.7l10.4,10.4c0.7-3.5,1.1-7.3,1.2-11.5c0-2.6,0-4.8,0.1-6.6c0-1.6,0-2.9,0-4
						c-0.8,0.9-1.4,1.4-1.7,1.8l-0.4,0.4l-0.2,0.3C182,164.9,178,168.8,173.1,173.7z M34.4,144.5c0.5,1.9,6,20.8,22.2,35.7l21.2-8.8
						c-2.3-2.2-4.3-4.4-6-6.5c-7.8-10-10.5-20-10.6-20.5H34.4V144.5z M209.4,171.4l21.1,8.7c16.1-14.9,21.6-33.6,22.2-35.7H226
						c-0.2,0.8-3,10.7-10.6,20.5C213.7,167,211.8,169.3,209.4,171.4z M102.4,161.6c3.6,3.6,7.7,7.7,11.3,11.3
						c0.2,0.2,0.4,0.4,0.6,0.6l28.7-28.7L102.4,161.6z M144.1,144.7l28.8,28.8c4.9-4.9,8.9-8.8,9.3-9.2l0.2-0.3l0.4-0.4
						c0.4-0.4,1-1,2-2c0,0,0,0,0-0.1L144.1,144.7z M200.4,144.5c6.1,9.4,8.4,18.7,8.7,26.7c2.4-2.2,4.3-4.4,6-6.5
						c7.5-9.6,10.3-19.2,10.6-20.3L200.4,144.5L200.4,144.5z M61.5,144.5c0.2,0.8,3,10.6,10.6,20.3c1.7,2.1,3.7,4.4,6,6.5
						c0.4-8,2.6-17.4,8.7-26.7l0,0H61.5V144.5z M185.3,161.4l23.5,9.7c-0.4-8-2.6-17.2-8.6-26.4c-2,3-4.4,5.9-7.2,8.8
						C189.3,157.4,186.9,159.9,185.3,161.4z M86.9,144.8c-6,9.2-8.2,18.4-8.5,26.4l23.5-9.7c-3.1-3.1-5.8-5.9-7.6-7.8
						C91.3,150.8,88.9,147.8,86.9,144.8z M185.1,144.5c0,6.5,0,11.7,0,12.9v0.9c0,0.6-0.1,1.5-0.1,3c1.5-1.6,4-4.1,7.7-7.9
						c2.9-2.9,5.3-5.9,7.3-8.9l0,0H185.1z M102.3,144.5c0,6.9,0,12.3-0.1,13v0.9c0,0.5,0,1.4,0,2.8v0.1l40.6-16.8H102.3z
						 M144.4,144.5l40.4,16.7c0-1.5,0-2.4,0.1-2.9v-0.9c0-1.3,0-6.5,0-12.9L144.4,144.5L144.4,144.5z M87.1,144.5c2,3,4.4,6,7.3,9
						c1.8,1.8,4.5,4.6,7.6,7.7c0,0,0,0,0-0.1c0-1.4,0-2.3,0-2.8v-0.9c0-0.6,0.1-6.1,0.1-12.9H87.1L87.1,144.5z M253,144.1h32.5
						c-0.4-1.3-7.4-26.6-28.8-46.5L231,108.3C247.6,123.8,252.9,143.5,253,144.1z M226,144.1h26.7c-0.3-1.2-5.7-20.4-22.1-35.7
						l-21.3,8.8c2.3,2.2,4.3,4.4,6,6.5C222.9,133.4,225.7,143,226,144.1z M200.7,144.1h25c-0.4-1.3-3.2-10.8-10.5-20.2
						c-1.6-2.1-3.6-4.2-5.8-6.3C208.9,125.6,206.7,134.9,200.7,144.1z M200.2,144.1L200.2,144.1c6.3-9.4,8.5-18.7,8.8-26.7
						l-23.9,9.9c1.6,1.6,4,4,7.6,7.8C195.7,138.1,198.2,141.1,200.2,144.1z M185.1,144.1h14.7c-2-3-4.4-5.9-7.2-8.8
						c-3.6-3.7-5.9-6.1-7.5-7.7C185.1,132.9,185.1,138.9,185.1,144.1z M144.4,144.1h40.4c0-5.3,0-11.3-0.1-16.7L144.4,144.1z
						 M102.3,144.1h40.5l-40.4-16.8c0,3.3,0,7,0,10.6C102.4,140.1,102.3,142.2,102.3,144.1z M87.3,144.1H102c0-2,0-4.1,0-6.2
						c0-3.5,0-7,0-10.3c-3,3.1-5.7,5.8-7.5,7.6C91.7,138.2,89.3,141.2,87.3,144.1z M86.8,144.1L86.8,144.1c2.1-3.1,4.6-6.1,7.5-9.2
						c1.8-1.8,4.5-4.6,7.6-7.8l-23.8-9.9l0,0C78.5,125.4,80.7,134.8,86.8,144.1z M61.5,144.1h25c-6-9.3-8.2-18.5-8.6-26.5
						c-2.3,2.1-4.2,4.3-5.8,6.3C64.7,133.3,61.9,142.7,61.5,144.1z M34.4,144.1h26.8c0.4-1.3,3.2-10.9,10.6-20.4
						c1.7-2.1,3.7-4.4,6.1-6.6l0,0l-21.3-8.8C40.2,123.5,34.8,142.6,34.4,144.1z M1.6,144.1h32.5c0.3-1.2,5.7-20.6,22.2-35.9
						L30.5,97.6l0,0C9.5,117,2.3,141.7,1.6,144.1z M172.8,115.3l-28.6,28.6l40.4-16.7c-1-1-1.7-1.7-2-2.1l0,0V125
						c0-0.1,0-0.1-0.3-0.4l0,0l-0.2-0.2C181.6,124,177.7,120.2,172.8,115.3z M102.6,127.1l40.2,16.7l-28.5-28.5
						C110.6,119,106.3,123.3,102.6,127.1z M160.7,103.3l-16.8,40.5l28.7-28.7C168.9,111.4,164.5,107.1,160.7,103.3z M114.5,115.1
						l28.7,28.7l-16.8-40.5c-1,1-1.6,1.6-2,2l0,0h-0.1c-0.1,0-0.1,0-0.2,0.1s-0.1,0.1-0.2,0.2l-0.2,0.2
						C123.3,106.2,119.4,110.1,114.5,115.1z M126.7,103.1l16.8,40.5V103C138.1,103.1,132.1,103.1,126.7,103.1z M143.8,103.1v40.3
						l16.7-40.2c-1.4,0-2.3,0-2.8-0.1h-0.9C155.4,103.1,150.2,103.1,143.8,103.1z M183.8,104.5c0.7,3.5,1.1,7.4,1.2,11.5
						c0.1,2.6,0.1,6.5,0.1,11l23.8-9.8C202.9,111.8,194.7,106.8,183.8,104.5z M78.4,117.1l23.7,9.8c0-4.4,0-8.3,0.1-10.9
						c0-4.1,0.5-7.9,1.2-11.5C92.5,106.8,84.3,111.7,78.4,117.1z M182.9,124.9c0.4,0.4,1,1,1.9,1.9c0-4.4-0.1-8.3-0.1-10.9
						c0-4.1-0.5-7.9-1.1-11.4L173,115.1c4.9,4.9,8.8,8.7,9.2,9.1l0.2,0.2C182.7,124.6,182.8,124.8,182.9,124.9z M103.6,104.6
						c-0.7,3.5-1.1,7.3-1.1,11.4c0,2.6,0,6.4-0.1,10.8c3.7-3.8,8-8.1,11.7-11.8L103.6,104.6z M85.4,86.4C85,87.1,80,96,78.5,108.3
						c-0.3,2.6-0.5,5.5-0.4,8.7c6-5.4,14.1-10.4,25.1-12.7L85.4,86.4z M183.9,104.2c11,2.3,19.2,7.3,25.1,12.7
						c0.1-3.2,0-6.1-0.4-8.8c-1.5-12.3-6.5-21.1-6.9-21.8L183.9,104.2z M202,86.1L202,86.1c0.1,0.1,5.4,9.2,7,22
						c0.3,2.7,0.5,5.6,0.4,8.8l21.1-8.7c0.8-21.8-8.5-39-9.6-40.9L202,86.1z M56.6,108.1l21.2,8.8c-0.1-3.1,0.1-6,0.4-8.6
						c1.5-12.8,6.9-21.9,7-22l0,0l-19-19C65.2,69.2,55.8,86.4,56.6,108.1z M161,103.1c3.8,3.8,8.1,8,11.8,11.7l10.5-10.5
						c-3.5-0.7-7.3-1.1-11.4-1.1c-2.6,0-4.7,0-6.5-0.1C163.6,103.2,162.1,103.2,161,103.1z M103.8,104.4l10.4,10.4
						c4.9-4.9,8.8-8.8,9.2-9.3l0.2-0.2c0.1-0.1,0.1-0.2,0.2-0.2c0.1-0.1,0.2-0.2,0.3-0.2c0.4-0.4,0.9-0.9,1.8-1.8
						c-4.3,0-8.2,0.1-10.8,0.1C111.2,103.3,107.4,103.7,103.8,104.4z M221.1,67c0.9,1.5,10.5,18.9,9.7,41l25.8-10.7
						c1.1-28.5-11.2-51.1-12.5-53.3L221.1,67z M30.6,97.3L56.4,108c-0.8-22,8.8-39.4,9.7-40.9l-23-23C42,45.9,29.5,68.5,30.6,97.3
						L30.6,97.3z M116.4,79.1C111,85,106,93.2,103.7,104.2c3.6-0.7,7.4-1.1,11.6-1.2c2.6-0.1,6.5-0.1,10.9-0.1L116.4,79.1z
						 M160.9,102.8c1.1,0,2.6,0,4.5,0c1.8,0,3.9,0,6.5,0.1c4.1,0,8,0.5,11.5,1.2c-2.3-10.9-7.3-19.1-12.7-25.1L160.9,102.8z
						 M171,78.9c5.4,6,10.4,14.1,12.6,25L201.5,86c-1.2-0.7-9.9-5.4-21.7-6.8C177.2,79,174.2,78.8,171,78.9z M85.7,86.2l17.8,17.8
						c2.2-10.9,7.2-19,12.6-25c-3.1-0.1-6,0.1-8.6,0.4C95.6,80.8,87,85.5,85.7,86.2z M156.7,102.7h0.9c0.5,0,1.3,0.1,2.6,0.1
						c-3.1-3.1-5.8-5.8-7.6-7.5c-2.9-2.9-5.9-5.2-8.8-7.2v14.7C150.2,102.7,155.4,102.7,156.7,102.7z M143.4,88
						c-3,2-5.9,4.4-8.8,7.2c-3.8,3.6-6.2,6-7.8,7.6c5.4,0,11.4-0.1,16.6-0.1V88z M143.8,87.7c3,2,6,4.4,9,7.3
						c1.8,1.8,4.6,4.5,7.8,7.6l9.8-23.8C162.4,79.4,153.1,81.6,143.8,87.7z M116.7,79.1l9.8,23.6c1.6-1.6,4.1-4,7.9-7.7
						c2.9-2.9,5.9-5.2,8.9-7.2C134,81.7,124.7,79.4,116.7,79.1z M116.6,78.8c8.1,0.4,17.4,2.6,26.8,8.8V62.2
						c-0.8,0.2-10.6,3-20.3,10.6C121,74.4,118.8,76.4,116.6,78.8z M143.8,62.2v25.2c9.3-6.1,18.6-8.3,26.6-8.7
						c-2.1-2.3-4.3-4.3-6.4-5.9C154.6,65.4,145.2,62.6,143.8,62.2z M66.5,67.1L85.4,86c1.2-0.7,9.9-5.5,21.9-6.9
						c2.7-0.3,5.7-0.5,8.9-0.4l-8.9-21.4C85.4,56.5,68,66.2,66.5,67.1z M173.1,78.6c2.4,0,4.7,0.2,6.8,0.4
						c12.1,1.5,20.9,6.3,21.9,6.9L220.7,67c-0.5-0.3-18.3-10.5-41-9.7l-8.8,21.3C171.6,78.6,172.4,78.6,173.1,78.6z M107.7,57.3
						l8.8,21.2c2.2-2.3,4.4-4.3,6.5-6c10-7.8,20-10.5,20.5-10.6V35.1C142.3,35.4,122.9,40.8,107.7,57.3z M143.8,61.9
						c1.3,0.4,10.9,3.2,20.4,10.6c2.1,1.7,4.3,3.7,6.5,6l8.8-21.3c-14.8-16-33.6-21.5-35.7-22.1V61.9z M43.2,43.8l23,23
						c0.9-0.5,17.3-9.9,38.5-9.9c0.8,0,1.7,0,2.5,0L96.6,31.3l0,0C67.3,30.1,44.4,43.1,43.2,43.8z M182.4,57
						c21.7,0,38.3,9.7,38.5,9.8l0,0l23-23c-0.6-0.4-23.7-13.7-53.4-12.6L179.8,57C180.7,57,181.5,57,182.4,57z M96.9,31.2L107.6,57
						c15.5-16.7,35.2-22,35.9-22.2V2.3C142.1,2.6,116.7,9.6,96.9,31.2z M143.8,34.8c1.9,0.5,20.8,6,35.8,22.1l10.7-25.8
						c-19.4-21-44-28.2-46.5-28.8V34.8z"/>
				</g>
			</g>
		</g>
	</g>
</g>
</svg>
