<?xml version="1.0" encoding="utf-8"?>
<!-- Generator: Adobe Illustrator 22.1.0, SVG Export Plug-In . SVG Version: 6.00 Build 0)  -->
<!DOCTYPE svg PUBLIC "-//W3C//DTD SVG 1.1//EN" "http://www.w3.org/Graphics/SVG/1.1/DTD/svg11.dtd">
<svg version="1.1" id="Layer_1" xmlns="http://www.w3.org/2000/svg" xmlns:xlink="http://www.w3.org/1999/xlink" x="0px" y="0px"
	 viewBox="0 0 142.3 142.3" style="enable-background:new 0 0 142.3 142.3;" xml:space="preserve">
<style type="text/css">
	.st0{fill:none;stroke:#BAB6B5;stroke-width:0.25;stroke-miterlimit:10;}
</style>
<path class="st0" d="M55.2,106.2L29.1,95.4C27.9,65,41.8,41.7,41.8,41.7S65,27.9,95.4,29.1l10.8,26.1C82.8,54.3,65,64.9,65,64.9l0,0
	L41.8,41.8L65,65C64.9,64.9,54.3,82.8,55.2,106.2z M32.9,142.2c0,0,5.1-20.1,22.3-36l0,0L29.1,95.4C6.8,116,0.2,142.2,0.2,142.2
	H32.9L32.9,142.2z M32.9,142.3L32.9,142.3 M106.2,55.2L106.2,55.2c15.8-17.2,36-22.3,36-22.3l0,0l-0.1-32.8c0,0-26.2,6.6-46.8,28.9
	 M142.2,32.9L142.2,32.9 M84,84.1L84,84.1L64.9,64.9l0,0c0,0-10.6,17.9-9.7,41.2l21.5,8.9C76,97.5,84,84.1,84,84.1z M60,142.3
	L60,142.3H33l0,0 M84.1,84.1L84.1,84.1c0,0,13.5-8,31-7.3l-8.9-21.5c-23.4-1-41.2,9.6-41.2,9.6l0,0 M142.3,32.9L142.3,32.9v27l0,0
	 M115.1,76.7L115.1,76.7C127,63.8,142.2,60,142.2,60l0,0 M106.2,55.2L106.2,55.2 M55.2,106.2L55.2,106.2 M60,142.2
	c0,0,3.8-15.2,16.8-27.1l0,0 M115.1,76.7c8.4,0.3,17.8,2.7,27.1,8.9V60 M142.2,85.6L142.2,85.6 M115.1,76.7L115.1,76.7L115.1,76.7
	L115.1,76.7z M102.2,102.2L84.1,84.1l0,0c0,0-8,13.4-7.3,31l0,0C82.9,109.4,91.2,104.4,102.2,102.2z M102.2,102.2L102.2,102.2
	c2.2-11,7.2-19.3,12.9-25.5l0,0 M76.7,115.1L76.7,115.1L76.7,115.1L76.7,115.1z M102.2,102.2c3.6-0.7,7.5-1.2,11.8-1.2
	c2.6,0,6.6-0.1,11.1-0.1l0,0l-10-24.1 M125.1,100.9c1.6-1.6,4.1-4,8-7.8c3-3,6.1-5.4,9.2-7.5l0,0 M60,142.2h25.6l0,0
	c-6.2-9.3-8.5-18.7-8.9-27.1 M85.6,142.2L85.6,142.2c2.1-3.1,4.5-6.1,7.5-9.1c1.8-1.9,4.7-4.7,7.8-7.9l0,0l-24.2-10l0,0
	 M102.2,102.2L102.2,102.2L102.2,102.2L102.2,102.2z M100.9,125.1c0-4.5,0-8.5,0.1-11.2c0-4.2,0.5-8.1,1.2-11.8l0,0
	c-11,2.2-19.3,7.2-25.5,12.9 M100.9,125.1L100.9,125.1L100.9,125.1L100.9,125.1z M100.9,125.1L100.9,125.1
	c3.9-3.9,8.3-8.3,12.1-12.1l-10.8-10.8 M113,113c4.9-4.9,10.9-11,12.1-12.1 M133.1,93.1c-3.9,3.8-6.4,6.2-8,7.8l0,0
	c5.5,0,11.7,0,17.1-0.1V85.6 M125.1,100.9L125.1,100.9L125.1,100.9L125.1,100.9z M100.9,142.2H85.6 M100.9,142.2
	c0-5.4,0-11.6,0.1-17.1 M100.9,142.2h41.4v-41.4 M100.9,125.1l39.4,16.3L100.9,125.1 M142.2,142.2L113,113 M141.4,140.3l-16.3-39.4
	c0,0,0,0-0.1,0"/>
</svg>
